<svg xmlns="http://www.w3.org/2000/svg" width="805" height="600"><rect width="805" height="600" x="0" y="0" fill="#FFFFFF" id="backgorund"/><g id="viz"><clipPath id="serieClipPath"><rect x="-50" y="-20" width="805" height="600"/></clipPath><g transform="translate(0,0)"><g transform="translate(50,20)" clip-path="url(#serieClipPath)"><g id="axis"><g transform="translate(0,560)" fill="none" font-size="10" font-family="sans-serif" text-anchor="middle"><path class="domain" stroke="currentColor" d="M0.5,6V0.5H735.5V6"/><g class="tick" opacity="1" transform="translate(0.5,0)"><line stroke="currentColor" y2="6"/><text fill="currentColor" y="9" dy="0.71em">Jan 03</text></g><g class="tick" opacity="1" transform="translate(57.03846153846154,0)"><line stroke="currentColor" y2="6"/><text fill="currentColor" y="9" dy="0.71em">Jan 10</text></g><g class="tick" opacity="1" transform="translate(113.57692307692308,0)"><line stroke="currentColor" y2="6"/><text fill="currentColor" y="9" dy="0.71em">Jan 17</text></g><g class="tick" opacity="1" transform="translate(170.1153846153846,0)"><line stroke="currentColor" y2="6"/><text fill="currentColor" y="9" dy="0.71em">Jan 24</text></g><g class="tick" opacity="1" transform="translate(226.65384615384616,0)"><line stroke="currentColor" y2="6"/><text fill="currentColor" y="9" dy="0.71em">Jan 31</text></g><g class="tick" opacity="1" transform="translate(283.19230769230774,0)"><line stroke="currentColor" y2="6"/><text fill="currentColor" y="9" dy="0.71em">Feb 07</text></g><g class="tick" opacity="1" transform="translate(339.7307692307692,0)"><line stroke="currentColor" y2="6"/><text fill="currentColor" y="9" dy="0.71em">Feb 14</text></g><g class="tick" opacity="1" transform="translate(396.2692307692308,0)"><line stroke="currentColor" y2="6"/><text fill="currentColor" y="9" dy="0.71em">Feb 21</text></g><g class="tick" opacity="1" transform="translate(452.8076923076923,0)"><line stroke="currentColor" y2="6"/><text fill="currentColor" y="9" dy="0.71em">Feb 28</text></g><g class="tick" opacity="1" transform="translate(509.3461538461538,0)"><line stroke="currentColor" y2="6"/><text fill="currentColor" y="9" dy="0.71em">Mar 06</text></g><g class="tick" opacity="1" transform="translate(565.8846153846155,0)"><line stroke="currentColor" y2="6"/><text fill="currentColor" y="9" dy="0.71em">Mar 13</text></g><g class="tick" opacity="1" transform="translate(622.4230769230769,0)"><line stroke="currentColor" y2="6"/><text fill="currentColor" y="9" dy="0.71em">Mar 20</text></g><g class="tick" opacity="1" transform="translate(678.9615384615385,0)"><line stroke="currentColor" y2="6"/><text fill="currentColor" y="9" dy="0.71em">Mar 27</text></g><g class="tick" opacity="1" transform="translate(735.5,0)"><line stroke="currentColor" y2="6"/><text fill="currentColor" y="9" dy="0.71em">Apr 03</text></g><text x="735" dy="-5" text-anchor="end" style="font-family: Arial, sans-serif; font-size: 12px; fill: rgb(123, 123, 123); font-weight: bold;">日期</text></g><g transform="translate(0,0)" fill="none" font-size="10" font-family="sans-serif" text-anchor="end"><path class="domain" stroke="currentColor" d="M0.5,560.5V0.5"/><g class="tick" opacity="1" transform="translate(0,560.5)"><line stroke="currentColor" x2="-6"/><text fill="currentColor" x="-9" dy="0.32em">41</text></g><g class="tick" opacity="1" transform="translate(0,517.4230769230769)"><line stroke="currentColor" x2="-6"/><text fill="currentColor" x="-9" dy="0.32em">42</text></g><g class="tick" opacity="1" transform="translate(0,474.34615384615387)"><line stroke="currentColor" x2="-6"/><text fill="currentColor" x="-9" dy="0.32em">43</text></g><g class="tick" opacity="1" transform="translate(0,431.2692307692307)"><line stroke="currentColor" x2="-6"/><text fill="currentColor" x="-9" dy="0.32em">44</text></g><g class="tick" opacity="1" transform="translate(0,388.1923076923077)"><line stroke="currentColor" x2="-6"/><text fill="currentColor" x="-9" dy="0.32em">45</text></g><g class="tick" opacity="1" transform="translate(0,345.11538461538464)"><line stroke="currentColor" x2="-6"/><text fill="currentColor" x="-9" dy="0.32em">46</text></g><g class="tick" opacity="1" transform="translate(0,302.03846153846155)"><line stroke="currentColor" x2="-6"/><text fill="currentColor" x="-9" dy="0.32em">47</text></g><g class="tick" opacity="1" transform="translate(0,258.96153846153845)"><line stroke="currentColor" x2="-6"/><text fill="currentColor" x="-9" dy="0.32em">48</text></g><g class="tick" opacity="1" transform="translate(0,215.88461538461536)"><line stroke="currentColor" x2="-6"/><text fill="currentColor" x="-9" dy="0.32em">49</text></g><g class="tick" opacity="1" transform="translate(0,172.80769230769232)"><line stroke="currentColor" x2="-6"/><text fill="currentColor" x="-9" dy="0.32em">50</text></g><g class="tick" opacity="1" transform="translate(0,129.7307692307692)"><line stroke="currentColor" x2="-6"/><text fill="currentColor" x="-9" dy="0.32em">51</text></g><g class="tick" opacity="1" transform="translate(0,86.65384615384616)"><line stroke="currentColor" x2="-6"/><text fill="currentColor" x="-9" dy="0.32em">52</text></g><g class="tick" opacity="1" transform="translate(0,43.57692307692305)"><line stroke="currentColor" x2="-6"/><text fill="currentColor" x="-9" dy="0.32em">53</text></g><g class="tick" opacity="1" transform="translate(0,0.5)"><line stroke="currentColor" x2="-6"/><text fill="currentColor" x="-9" dy="0.32em">54</text></g><text x="4" text-anchor="start" dominant-baseline="hanging" style="font-family: Arial, sans-serif; font-size: 12px; fill: rgb(123, 123, 123); font-weight: bold;">收盤價</text></g></g><g id="viz"><g><path d="M0,542.7692307692308C4.038461538461539,542.7692307692308,4.038461538461539,557.8461538461539,8.076923076923078,557.8461538461539C12.115384615384617,557.8461538461539,12.115384615384617,549.2307692307692,16.153846153846157,549.2307692307692C20.192307692307693,549.2307692307692,20.192307692307693,499.6923076923078,24.23076923076923,499.6923076923078C36.34615384615385,499.6923076923078,36.34615384615385,409.2307692307693,48.46153846153846,409.2307692307693C52.5,409.2307692307693,52.5,387.6923076923077,56.53846153846154,387.6923076923077C60.57692307692308,387.6923076923077,60.57692307692308,381.2307692307693,64.61538461538463,381.2307692307693C68.65384615384616,381.2307692307693,68.65384615384616,381.2307692307693,72.6923076923077,381.2307692307693C76.73076923076923,381.2307692307693,76.73076923076923,370.4615384615385,80.76923076923077,370.4615384615385C92.88461538461539,370.4615384615385,92.88461538461539,392.0000000000001,105,392.0000000000001C109.03846153846155,392.0000000000001,109.03846153846155,346.76923076923066,113.07692307692308,346.76923076923066C165.57692307692307,346.76923076923066,165.57692307692307,224.00000000000014,218.07692307692307,224.00000000000014C222.1153846153846,224.00000000000014,222.1153846153846,224.00000000000014,226.15384615384616,224.00000000000014C230.19230769230768,224.00000000000014,230.19230769230768,204.61538461538464,234.23076923076923,204.61538461538464C238.26923076923077,204.61538461538464,238.26923076923077,155.07692307692315,242.3076923076923,155.07692307692315C246.34615384615384,155.07692307692315,246.34615384615384,167.99999999999997,250.3846153846154,167.99999999999997C262.5,167.99999999999997,262.5,213.23076923076934,274.61538461538464,213.23076923076934C278.6538461538462,213.23076923076934,278.6538461538462,208.923076923077,282.69230769230774,208.923076923077C286.7307692307693,208.923076923077,286.7307692307693,150.7692307692308,290.7692307692308,150.7692307692308C294.8076923076923,150.7692307692308,294.8076923076923,150.7692307692308,298.84615384615387,150.7692307692308C302.8846153846154,150.7692307692308,302.8846153846154,137.84615384615398,306.92307692307696,137.84615384615398C319.03846153846155,137.84615384615398,319.03846153846155,183.07692307692304,331.1538461538462,183.07692307692304C335.19230769230774,183.07692307692304,335.19230769230774,155.07692307692315,339.2307692307692,155.07692307692315C343.2692307692308,155.07692307692315,343.2692307692308,176.61538461538467,347.3076923076923,176.61538461538467C351.34615384615387,176.61538461538467,351.34615384615387,167.99999999999997,355.3846153846154,167.99999999999997C359.4230769230769,167.99999999999997,359.4230769230769,172.30769230769232,363.46153846153845,172.30769230769232C375.5769230769231,172.30769230769232,375.5769230769231,150.7692307692308,387.6923076923077,150.7692307692308C391.7307692307692,150.7692307692308,391.7307692307692,146.46153846153837,395.7692307692308,146.46153846153837C399.8076923076923,146.46153846153837,399.8076923076923,191.69230769230782,403.84615384615387,191.69230769230782C407.88461538461536,191.69230769230782,407.88461538461536,163.69230769230754,411.9230769230769,163.69230769230754C415.96153846153845,163.69230769230754,415.96153846153845,174.46153846153834,420,174.46153846153834C444.2307692307692,174.46153846153834,444.2307692307692,116.30769230769245,468.46153846153845,116.30769230769245C472.5,116.30769230769245,472.5,142.15384615384602,476.53846153846155,142.15384615384602C480.5769230769231,142.15384615384602,480.5769230769231,116.30769230769245,484.6153846153846,116.30769230769245C496.73076923076917,116.30769230769245,496.73076923076917,90.46153846153851,508.8461538461538,90.46153846153851C512.8846153846155,90.46153846153851,512.8846153846155,103.38461538461533,516.923076923077,103.38461538461533C520.9615384615386,103.38461538461533,520.9615384615386,81.84615384615381,525,81.84615384615381C529.0384615384615,81.84615384615381,529.0384615384615,64.61538461538464,533.0769230769231,64.61538461538464C537.1153846153846,64.61538461538464,537.1153846153846,86.15384615384616,541.1538461538462,86.15384615384616C553.2692307692308,86.15384615384616,553.2692307692308,64.61538461538464,565.3846153846155,64.61538461538464C569.4230769230769,64.61538461538464,569.4230769230769,142.15384615384602,573.4615384615385,142.15384615384602C577.5,142.15384615384602,577.5,99.07692307692298,581.5384615384615,99.07692307692298C585.5769230769231,99.07692307692298,585.5769230769231,86.15384615384616,589.6153846153846,86.15384615384616C593.6538461538462,86.15384615384616,593.6538461538462,34.46153846153834,597.6923076923077,34.46153846153834C609.8076923076924,34.46153846153834,609.8076923076924,34.46153846153834,621.9230769230769,34.46153846153834C625.9615384615385,34.46153846153834,625.9615384615385,51.69230769230782,630,51.69230769230782C634.0384615384615,51.69230769230782,634.0384615384615,21.538461538461526,638.0769230769231,21.538461538461526C642.1153846153846,21.538461538461526,642.1153846153846,30.153846153846295,646.1538461538462,30.153846153846295C650.1923076923076,30.153846153846295,650.1923076923076,38.769230769230695,654.2307692307692,38.769230769230695C666.3461538461538,38.769230769230695,666.3461538461538,43.07692307692305,678.4615384615385,43.07692307692305C682.5,43.07692307692305,682.5,77.53846153846139,686.5384615384615,77.53846153846139C690.5769230769231,77.53846153846139,690.5769230769231,107.69230769230768,694.6153846153846,107.69230769230768C698.6538461538462,107.69230769230768,698.6538461538462,81.84615384615381,702.6923076923077,81.84615384615381C706.7307692307693,81.84615384615381,706.7307692307693,47.384615384615465,710.7692307692308,47.384615384615465" stroke="#1f77b4" fill="none"/><text font-family="sans-serif" font-size="10" class="labels" x="638.0769230769231" y="21.538461538461526" dx="0" dy="-4" text-anchor="middle"/></g></g></g><text y="4" x="4" style="font-family: Arial, sans-serif; font-size: 12px; fill: black; font-weight: bold; dominant-baseline: hanging;"/></g><g id="grid"><rect x="0" y="0" width="805" height="600" fill="none" stroke="#ccc"/></g></g></svg>